<?xml version="1.0" encoding="utf-8"?>
<svg xmlns="http://www.w3.org/2000/svg" height="48" width="48" viewBox="0 0 48 48">
  <g>
    <path id="path1" transform="rotate(0,24,24) translate(6.87899719226327,0) scale(1.50000017881396,1.50000017881396)  " fill="#FFFFFF" d="M10.899993,15.602111L10.899993,16.555108C10.135009,16.664108 9.5750111,16.959104 9.2179859,17.442104 8.8630055,17.925094 8.6839893,18.470096 8.6839893,19.074088 8.6839893,19.534084 8.7829884,19.93908 8.9830006,20.287078 9.1829823,20.633077 9.441985,20.90108 9.7609852,21.093072 10.080993,21.289077 10.524993,21.48207 11.093993,21.679075 11.725982,21.903072 12.135009,22.088069 12.316985,22.233064 12.499999,22.377067 12.592009,22.592063 12.592009,22.875066 12.592009,23.148059 12.499999,23.37906 12.316985,23.573058 12.135009,23.766059 11.846984,23.86205 11.458007,23.86205 10.624999,23.86205 10.135009,23.411058 9.9869984,22.511062L8.3890064,22.928067C8.7120045,24.359058,9.548003,25.146055,10.899993,25.285045L10.899993,26.514041 11.933989,26.514041 11.933989,25.279048C12.744994,25.194043 13.364989,24.910049 13.794982,24.429048 14.225005,23.947057 14.438993,23.347062 14.438993,22.626067 14.438993,22.155069 14.33499,21.745069 14.126983,21.393073 13.916991,21.044076 13.639983,20.766078 13.290007,20.568082 12.941985,20.369079 12.458983,20.156081 11.846984,19.932084 11.286986,19.727084 10.923003,19.555087 10.751983,19.417089 10.582,19.277089 10.497008,19.078086 10.497008,18.818094 10.497008,18.562091 10.585997,18.346097 10.762999,18.167096 10.938994,17.987098 11.17401,17.898093 11.464995,17.898093 12.046996,17.898093 12.475005,18.299093 12.751983,19.101089L14.178008,18.516094C13.837981,17.348102,13.087981,16.694106,11.933989,16.556108L11.933989,15.602111z M5.1310113,0.00021808739C5.3169854,-0.0027876735 5.5379937,0.025212017 5.7959893,0.088215038 10.572997,1.2522089 12.318999,4.3981841 14.881986,2.0692048 17.386991,-0.20877995 18.885008,3.3051965 13.837981,9.0121596 17.596006,10.962143 22.828001,16.354106 22.828001,23.729057 22.828001,25.483043 22.527983,26.867036 21.989988,27.964029 21.695005,28.549032 20.928007,29.774015 19.390989,30.635017 17.333006,31.751998 14.520994,31.999997 11.415007,31.999997 8.0499867,31.999997 5.0260003,31.713012 2.9360045,30.341012 1.770996,29.556012 0.9960022,28.242027 0.82800287,27.940027 0.29599005,26.84604 1.084336E-07,25.469051 0,23.729057 1.084336E-07,16.486108 5.0480035,11.154144 8.7890003,9.1181538 7.3290094,7.1251705 2.3389891,0.045216157 5.1310113,0.00021808739z" />
  </g>
</svg>