<?xml version="1.0" encoding="utf-8"?>
<svg xmlns="http://www.w3.org/2000/svg" height="48" width="48" viewBox="0 0 48 48">
  <g>
    <path id="path1" transform="rotate(0,24,24) translate(0.00448050374671993,0) scale(1.5000474766022,1.5000474766022)  " fill="#FFFFFF" d="M22.993047,21C24.098047,21 24.993048,21.895 24.993048,23 24.993048,24.105 24.098047,25 22.993047,25 21.888047,25 20.993047,24.105 20.993047,23 20.993047,21.895 21.888047,21 22.993047,21z M22.992047,18C20.234967,18 17.992047,20.243011 17.992047,23 17.992047,25.756989 20.234967,28 22.992047,28 25.749005,28 27.992047,25.756989 27.992047,23 27.992047,20.243011 25.749005,18 22.992047,18z M10.602012,15C5.8590069,15 2.0000019,18.829 2.0000019,23.536 2.0000019,24.895 3.116003,26 4.4890051,26L16.040381,26 16.537517,25.708483 16.478472,25.564247C16.164587,24.769819,15.992047,23.904684,15.992047,23L15.993575,22.86736 13.993003,22.508999 14.339006,20.516985 16.323043,20.872384 16.343493,20.808103C16.636641,19.921258,17.10264,19.112355,17.701368,18.421463L17.770044,18.343922 16.473045,16.77399 17.999025,15.473988 19.303582,17.053069 19.320401,17.04241C19.613249,16.861257,19.920373,16.701082,20.239658,16.563999L20.317111,16.533017 19.99632,16.320469C18.630897,15.46125,17.04427,15,15.398018,15L12.999039,15z M12.999039,2C9.9410272,2 7.4540176,4.467 7.4540176,7.5 7.4540176,9.947 9.1090236,12.123 11.478033,12.791 12.461036,13.068 13.535041,13.069 14.521044,12.791 16.891053,12.122 18.54506,9.9460001 18.54506,7.5 18.54506,4.467 16.05705,2 12.999039,2z M12.999039,0C17.160054,0 20.545067,3.3640003 20.545067,7.5 20.545067,9.6899061 19.574347,11.720467 17.994948,13.115179L17.805867,13.275565 17.999678,13.319945C19.40343,13.671769,20.722288,14.307604,21.878562,15.196866L22.003037,15.294947 22.003037,14 23.995094,14 23.995094,16.072186 24.056465,16.0808C24.957713,16.218912,25.802977,16.529577,26.557325,16.977909L26.691771,17.060948 27.996069,15.483002 29.521049,16.783004 28.223097,18.354091 28.362989,18.515739C28.923172,19.185539,29.360686,19.96129,29.640602,20.808103L29.665491,20.886337 31.648023,20.531992 31.993014,22.522988 29.990685,22.881673 29.992047,23C29.992047,23.912223,29.81662,24.784235,29.497746,25.584093L29.440213,25.721622 31.24802,26.78101 30.253022,28.533008 28.395273,27.444055 28.296467,27.562634C27.743213,28.204905,27.075585,28.745984,26.325568,29.153928L26.232512,29.203091 26.987051,31.307993 25.115079,31.998988 24.350624,29.867175 24.229345,29.890475C23.827616,29.962437 23.414126,30 22.992047,30 22.585042,30 22.186025,29.965072 21.797836,29.898053L21.619929,29.864743 20.856041,31.994996 18.984069,31.302995 19.739396,29.196614 19.621403,29.13359C18.843238,28.704215,18.154988,28.131047,17.592763,27.450155L17.578762,27.432781 16.648019,27.978352 16.648019,28 16.611087,28 15.723994,28.519985 15.428514,28 4.4890051,28C2.0130024,28 0,25.997 0,23.536 0,18.633812 3.3851547,14.50334 7.9551811,13.33225L8.1910915,13.27491 8.0044122,13.116582C6.4247303,11.721779 5.45401,9.6905622 5.45401,7.5 5.45401,3.3640003 8.8390226,0 12.999039,0z" />
  </g>
</svg>