<?xml version="1.0" encoding="utf-8"?>
<svg xmlns="http://www.w3.org/2000/svg" height="48" width="48" viewBox="0 0 48 48">
  <g>
    <path id="path1" transform="rotate(0,24,24) translate(2.78175225475404,0) scale(1.49999982118609,1.49999982118609)" fill="#FFFFFF" d="M5.4990786,30.659012L20.178293,30.659012 20.260295,32.000004 5.5830949,32.000004z M16.751268,12.569185L20.101297,12.569185 20.101297,29.320029 16.751268,29.320029z M11.391169,12.569185L15.411221,12.569185 15.411221,29.320029 11.391169,29.320029z M6.7000864,12.569185L10.720168,12.569185 10.720168,29.320029 6.7000864,29.320029z M2.3450377,12.569185L4.6900757,12.569185 4.6900757,13.909169 3.9030452,13.909169C3.0420394,13.909169,2.0100105,15.024164,2.0100105,15.884148L2.0100105,21.479098C2.0100105,22.339091,3.0420394,22.619086,3.9030452,22.619086L4.6900757,22.619086 4.6900757,23.959078 2.3450377,23.959078C1.2350045,23.959078,-1.5224123E-07,23.47708,0,22.367091L0,14.996164C-1.5224123E-07,13.886174,1.2350045,12.569185,2.3450377,12.569185z M5.3610762,9.8892093L20.101297,9.8892093 20.101297,11.229193 5.3610762,11.229193z M15.206231,0.00030120936C15.814242,0.013301421 16.408246,0.42929791 16.830249,1.640285 16.830249,1.6402852 20.680316,0.19629838 20.519302,3.8862667 20.519302,3.8862665 23.726354,4.2072625 23.406371,6.4522371 23.406371,6.4522371 27.094417,3.7252648 26.935418,8.8582206 26.935418,8.8582206 30.464465,12.707183 26.13441,13.510177 26.13441,13.510177 26.934411,16.558146 23.887367,15.917153 23.887367,15.917153 24.846397,18.643126 21.32034,17.200139L21.154321,12.868178 22.111337,12.707183 22.111337,9.2192168 4.3170531,9.2192168 5.2780669,8.6652217C5.2780669,8.6652217 2.3920355,4.0452614 8.1661122,5.0092497 8.1661122,5.0092497 8.3271258,-1.0876939 12.658187,1.640285 12.658187,1.6402852 13.961216,-0.025699681 15.206231,0.00030120936z" />
  </g>
</svg>
